<svg xmlns="http://www.w3.org/2000/svg" fill="#ffffff" x="0px" y="0px" viewBox="3.83 3.48 92.68 93.67"><path d="M88.02,40.8l-5.07-11.33c-2.09-4.68-6.76-7.7-11.88-7.7h-25.85c-4.09,0-7.99,1.96-10.43,5.23l-9.49,12.71-14.99,5.12c-3.58,1.22-5.98,4.58-5.98,8.35v7.9c0,3.85,3.14,6.99,6.99,6.99h6.09c1.83,2.88,5.04,4.79,8.7,4.79s6.87-1.92,8.7-4.79h13.18c.07,.85,.32,1.7,.8,2.47l10.46,16.6c.78,1.24,2,2.11,3.44,2.43,.41,.09,.82,.14,1.23,.14,1.03,0,2.03-.29,2.92-.85l2.21-1.39,2.85,4.52c1.57,2.49,4.02,4.23,6.89,4.88,.82,.19,1.64,.28,2.46,.28,2.06,0,4.08-.58,5.86-1.7l4.24-2.67c5.15-3.24,6.7-10.07,3.45-15.22l-2.85-4.52,.77-.48c2.34-1.48,3.17-4.44,2.06-6.9,1.06-1.23,1.71-2.82,1.71-4.57v-8.54c0-2.15-.88-4.25-2.41-5.76l-6.07-5.99Zm-61.92,29.06c-4.03,0-7.31-3.28-7.31-7.31s3.28-7.32,7.31-7.32,7.32,3.28,7.32,7.32-3.28,7.31-7.32,7.31Zm66.16,9.28c2.36,3.75,1.23,8.72-2.51,11.08l-4.24,2.67c-1.81,1.14-3.97,1.51-6.06,1.04-2.09-.48-3.88-1.74-5.02-3.55l-7.63-12.12c-.15-.24-.2-.54-.13-.83,.04-.17,.14-.4,.38-.54,.14-.08,.29-.12,.45-.12,.07,0,.14,0,.21,.02,.23,.05,.43,.19,.56,.4,0,0,0,0,0,0l5.06,8.03c.29,.45,.77,.7,1.27,.7,.27,0,.55-.07,.8-.23,.7-.44,.91-1.37,.47-2.07l-5.06-8.03s0,0,0,0l-4.32-6.86c-.15-.24-.2-.55-.13-.83,.04-.17,.14-.4,.38-.54,.2-.12,.44-.15,.65-.1,.24,.06,.44,.2,.57,.4,0,0,0,0,0,0l6.91,10.97c.29,.45,.77,.7,1.27,.7,.27,0,.55-.07,.8-.23,.7-.44,.91-1.37,.47-2.07l-6.91-10.97s0,0,0,0l-2.5-3.97c-.15-.24-.2-.55-.13-.83,.04-.17,.14-.4,.38-.54,.2-.12,.43-.15,.65-.1,.24,.06,.44,.2,.57,.41l1.85,2.94s0,0,0,0c0,0,0,0,0,0l7.62,12.1c.29,.45,.77,.7,1.27,.7,.27,0,.55-.07,.8-.23,.7-.44,.91-1.37,.47-2.07l-7.62-12.1s0,0,0,0c-.13-.2-.17-.45-.12-.68,.05-.24,.2-.44,.4-.57,.21-.13,.45-.17,.69-.12,.23,.05,.43,.2,.56,.4l2.92,4.63s0,0,0,0c0,0,0,0,0,0l4.71,7.47c.29,.45,.77,.7,1.27,.7,.27,0,.55-.07,.8-.23,.7-.44,.91-1.37,.47-2.07l-4.7-7.47s0,0,0,0h0c-.13-.21-.17-.45-.12-.68,.05-.24,.2-.44,.4-.57,.21-.13,.45-.17,.68-.12,.24,.06,.44,.2,.57,.41h0s9.87,15.67,9.87,15.67Zm-.04-10.7c-.15,.65-.54,1.21-1.11,1.56l-.76,.48-5.43-8.61c-.55-.88-1.42-1.49-2.45-1.73-1.02-.23-2.06-.04-2.94,.51-.26,.17-.5,.36-.71,.57l-.89-1.42c-.56-.88-1.42-1.5-2.44-1.73-1.02-.23-2.07-.05-2.95,.5-.27,.17-.51,.36-.72,.58-.55-.74-1.34-1.26-2.27-1.47-.96-.22-1.97-.06-2.82,.44-.9,.52-1.53,1.38-1.79,2.42-.26,1.07-.08,2.22,.5,3.15l.48,.76c-.24,.08-.48,.19-.71,.32-.9,.52-1.53,1.38-1.79,2.41-.26,1.07-.08,2.22,.5,3.15l2.29,3.64c-.24,.08-.48,.19-.7,.32-.9,.52-1.53,1.38-1.79,2.42-.26,1.07-.08,2.22,.5,3.14l3.19,5.06-2.21,1.39c-1.17,.73-2.71,.38-3.45-.78l-10.46-16.6c-.36-.56-.47-1.23-.32-1.89s.54-1.21,1.11-1.56l25.89-16.31c1.16-.73,2.71-.38,3.45,.78l10.46,16.6c.36,.56,.47,1.23,.32,1.89Zm1.27-7.37c0,.62-.16,1.21-.41,1.73l-9.1-14.45c-1.62-2.57-5.02-3.34-7.59-1.72l-25.89,16.31c-.85,.54-1.49,1.28-1.92,2.12h-12.49c.2-.81,.32-1.65,.32-2.52,0-5.69-4.63-10.32-10.32-10.32s-10.31,4.63-10.31,10.32c0,.87,.12,1.71,.32,2.52h-4.8c-2.2,0-3.99-1.79-3.99-3.99v-7.9c0-2.49,1.59-4.71,3.95-5.52l15.43-5.27c.29-.1,.54-.28,.72-.52l9.77-13.08c1.88-2.52,4.88-4.02,8.03-4.02h25.85c3.95,0,7.54,2.33,9.15,5.93l5.19,11.59c.08,.17,.18,.32,.32,.46l6.27,6.19c.96,.95,1.51,2.27,1.51,3.62v8.54Z"></path><path d="M54.75,28.04h-9.1c-2.24,0-4.32,1.1-5.57,2.95l-7.27,10.72c-.31,.46-.34,1.05-.08,1.54,.26,.49,.77,.8,1.33,.8h20.71c.83,0,1.5-.67,1.5-1.5v-13.01c0-.83-.67-1.5-1.5-1.5Zm-1.5,13.01h-16.38l5.68-8.38c.7-1.03,1.85-1.64,3.09-1.64h7.6v10.01Z"></path><path d="M74.95,30.2c-.75-1.33-2.17-2.16-3.7-2.16h-9.54c-.83,0-1.5,.67-1.5,1.5v13.01c0,.83,.67,1.5,1.5,1.5h18.45c.53,0,1.03-.28,1.29-.74,.27-.46,.27-1.03,.01-1.49l-6.52-11.62Zm-11.74,10.85v-10.01h8.04c.45,0,.86,.24,1.08,.63l5.27,9.38h-14.39Z"></path><path d="M17.48,19.2c-.11-.73-.74-1.27-1.48-1.27-.76-.02-1.37,.54-1.49,1.27-.01,.07-1.13,6.81-5.78,7.94-.67,.16-1.15,.77-1.15,1.46s.47,1.29,1.15,1.46c4.64,1.12,5.77,7.87,5.78,7.93,.11,.73,.74,1.27,1.48,1.27h0c.74,0,1.37-.54,1.48-1.27,.01-.07,1.13-6.81,5.78-7.94,.67-.16,1.15-.77,1.15-1.46s-.47-1.29-1.15-1.46c-4.64-1.12-5.76-7.87-5.78-7.93Zm-1.48,13.76c-.75-1.55-1.85-3.18-3.45-4.36,1.59-1.18,2.7-2.82,3.45-4.36,.75,1.55,1.85,3.18,3.45,4.36-1.59,1.18-2.7,2.82-3.45,4.36Z"></path><path d="M8.52,18.94c.11,.73,.74,1.27,1.48,1.27s1.37-.54,1.48-1.27c0-.04,.73-4.26,3.51-4.93,.67-.16,1.15-.77,1.15-1.46s-.47-1.29-1.15-1.46c-2.8-.68-3.51-4.89-3.51-4.93-.11-.73-.74-1.27-1.48-1.27h0c-.74,0-1.37,.54-1.48,1.26,0,.04-.72,4.26-3.51,4.94-.67,.16-1.15,.77-1.15,1.46s.47,1.29,1.15,1.46c2.8,.68,3.51,4.89,3.51,4.93Zm1.48-8.3c.4,.68,.91,1.34,1.55,1.91-.63,.57-1.14,1.23-1.55,1.91-.4-.68-.91-1.34-1.55-1.91,.63-.57,1.14-1.23,1.55-1.91Z"></path><path d="M28.38,29.29h0c.74,0,1.37-.54,1.48-1.27,.01-.09,1.44-8.71,7.46-10.17,.67-.16,1.15-.77,1.15-1.46s-.47-1.29-1.15-1.46c-6.02-1.46-7.44-10.08-7.46-10.16-.11-.73-.74-1.27-1.48-1.27h0c-.74,0-1.37,.54-1.48,1.27-.01,.09-1.44,8.71-7.46,10.17-.67,.16-1.15,.77-1.15,1.46s.47,1.29,1.15,1.46c6.02,1.46,7.44,10.08,7.46,10.16,.11,.73,.74,1.27,1.48,1.27Zm-4.92-12.89c2.41-1.62,3.95-4.09,4.92-6.29,.97,2.21,2.51,4.67,4.92,6.29-2.41,1.62-3.95,4.09-4.92,6.29-.97-2.21-2.51-4.67-4.92-6.29Z"></path></svg>