<svg xmlns="http://www.w3.org/2000/svg" fill="#004553" xmlns:xlink="http://www.w3.org/1999/xlink" version="1.1" x="0px" y="0px" style="enable-background:new 0 0 100 100;" xml:space="preserve" viewBox="0.68 6.4 98.63 87.2"><path d="M34.7257843,80.7165298c4.7329445-0.1239777,4.732563-7.0561829-0.0001259-7.1795273  C29.9923306,73.6610413,29.9937267,80.5932541,34.7257843,80.7165298z M34.7257843,75.6171722  c1.9836769,0.0354843,1.982914,2.9837036,0,3.0191879C32.7426147,78.6006241,32.7423592,75.6524048,34.7257843,75.6171722z   M79.8770523,73.5370026c-4.7334518,0.1240387-4.7320557,7.0562515,0.0001221,7.1795273  C84.609993,80.5925522,84.6096115,73.660347,79.8770523,73.5370026z M79.8770523,78.6363602  c-1.9831696-0.0357361-1.983429-2.9839554,0-3.0191879C81.8607254,75.6526566,81.8599625,78.6008759,79.8770523,78.6363602z   M55.4787292,40.9789886H44.2348404c-1.6515388,0-3.1984634,0.8994102-4.0404854,2.3539047l-6.3745842,11.2002106  c-0.4008217,0.6590042,0.1292496,1.579174,0.9039803,1.5544777c0,0.0000648,20.7549782,0.0000648,20.7549782,0.0000648  c0.5748901,0,1.0400848-0.4657021,1.0400848-1.0400848V42.0190735  C56.5188141,41.4446907,56.0536194,40.9789886,55.4787292,40.9789886z M54.4386444,54.0074768H36.512413l5.4858398-9.6390686  c0.4682426-0.8074875,1.324482-1.3092499,2.2365875-1.3092499h10.203804V54.0074768z M99.0079117,65.683548  c-0.6040955-6.9069405-7.1672211-12.2364883-14.0177841-11.6841965l-7.1881714-12.6100159  c-1.5225449-2.6789284-4.3797302-4.3431664-7.4573288-4.3431664c-5.7290955,0.0044441-20.1059341-0.0012054-26.1057243,0  c-3.0654068,0-5.9215775,1.6632195-7.4563103,4.3431664L29.612709,53.9993515h-5.2918377  c-3.2077332,0.0003166-6.4352722,1.2204361-8.79527,3.4035721c-1.3293076-0.2204704-2.7284451,0.2802734-3.6105871,1.24786  c-3.5497732-2.657917-8.7999668,0.4931908-8.1612139,4.8769226c-3.3327918,0.7733345-4.1654181,5.4146767-1.2992175,7.2886543  c-0.0171399,0.0531998-0.0372002,0.1050034-0.0497696,0.1600418H1.7284786c-0.5748907,0-1.0400851,0.4656982-1.0400851,1.0400848  c0,4.5903015,2.3483169,8.7152176,5.9594126,11.1433945l1.9021673,8.7990112  c0.2234554,0.9634018,1.0675087,1.6363068,2.0527458,1.6363068h10.5359392c0.9872684,0,1.851635-0.695755,2.0568085-1.6530609  l0.5748901-2.6525192h1.7988186v3.2654953c0,0.5743866,0.4651947,1.0400848,1.0400848,1.0400848h4.8022671  c0.574892,0,1.0400867-0.4656982,1.0400867-1.0400848v-3.2654953h54.6227417v3.2654953  c0,0.5743866,0.4651947,1.0400848,1.0400848,1.0400848h4.802269c0.5748901,0,1.0400848-0.4656982,1.0400848-1.0400848v-3.2654953  h4.0963516c0.5748901,0,1.0400848-0.4657059,1.0400848-1.0400848v-3.4950562c0-0.574379-0.4651947-1.0400848-1.0400848-1.0400848  H85.4969635c1.614975-1.3797073,2.716507-3.3386917,2.9816132-5.5538864h4.6341629  c3.2980042,0,5.9804916-2.6921387,5.9804916-6.0013123C99.0711365,71.0737839,99.1606445,66.6944962,99.0079117,65.683548z   M91.9528046,60.3424454c0-0.2894745,0.2447815-0.5342598,0.5352783-0.5342598h1.755394  c1.231041,1.4034538,2.1227036,3.1103516,2.5060043,4.9419289h-4.2613983c-0.2955704,0-0.5352783-0.2341232-0.5352783-0.5220795  V60.3424454z M70.6843872,43.8688049c0.2457962-0.1684151,0.4471664-0.3902855,0.6485291-0.6095505  c0.5220718,0.2158394,0.9628906,0.6038361,1.240181,1.1096611l5.5152893,9.635006H60.6303978v-9.439991  c0.210762,0.0366287,0.4268532,0.056881,0.647007,0.058403c1.2185974,2.0035477,4.5238342,1.7310219,5.3893509-0.433197  C67.9083252,44.8667374,69.5582199,44.7287941,70.6843872,43.8688049z M61.3068619,39.1304016h7.1140213  c1.237381-0.0285683,2.1046677,1.3765373,1.5225449,2.4676628c-0.4742126,1.0299263-1.9717484,1.2649994-2.7373352,0.4168854  c-0.5103912-0.5496902-1.2094574-0.2948112-1.7002945,0.1194725c-0.3595581,0.144165-0.6084061,0.4763031-0.6470032,0.861763  c-0.0528183,0.527153-0.4834824,0.9248009-1.003521,0.9248009c-1.0329781,0.0535812-0.92239-1.4834404-1.9653969-1.4412231  C59.3294029,43.0980721,58.6601791,39.3162117,61.3068619,39.1304016z M4.8314662,65.4936066  c0.4867783,0.0147324,1.3252454,0.8383408,1.3376875,1.401741c0.2607832,1.339592,2.290422,0.9499435,2.0436044-0.3840637  c-0.0368195-0.9484177-1.3254986-2.5906868-2.3036256-2.8393478c-0.9675889-3.794239,4.536406-5.5566216,5.8870435-1.8373528  c0.2611637,0.7963181,0.2292957,1.9087715,1.3854256,1.800724c1.629323-0.3599396,0.6487837-2.4511566,0.1411839-3.4117622  c1.06954-1.503376,3.5311079-0.6648445,3.5509138,1.1554947c0.0033016,0.3916817,0.231329,0.7291527,0.5667667,0.9105186  c0.7955532,0.4675446,1.3936768-0.6851578,2.1299381,0.0862083c0.2977295,0.4660187,0.2468185,0.9920921,0.9324207,1.1594925  c0.4131393,0.1118584,0.83288-0.0552292,1.0959492-0.3741608c1.1680641-1.3707619,3.4688969-0.518898,3.4768944,1.273571  c-1.2512245,0.2474518-4.0206795,2.812561-2.1036568,3.8704224c1.273571,0.3940277,1.1998043-0.8340912,2.0029755-1.5012817  c1.1792374-0.9856796,2.9516468-0.4845581,2.9953232,1.0661087c0,0.8734512-0.70998,1.5839386-1.5834885,1.5839386H4.7532568  C2.1390784,69.3958969,2.1159711,65.5063095,4.8314662,65.4936066z M31.1191311,71.6242294  c4.2525158-2.8514709,10.2338924,0.3940964,10.1965656,5.5068512c-0.0297089,7.0626678-9.7514305,9.0975113-12.6120453,2.6687775  C30.3224354,77.4500122,31.3989582,74.4910049,31.1191311,71.6242294z M49.6252022,80.6840286  c-0.2351341-0.7018509,0.3808937-1.425293,1.0929031-1.4103088c0.761528-0.0432968,1.0992508,1.0327225,1.914608,0.7596893  c0.389019-0.0964355,0.6876373-0.4067307,0.7688942-0.7987976c0.0223427-0.1112137,0.1208687-0.231575,0.2813492-0.231575  c0.4166946,0.1583862,0.7765083,0.3607025,1.2168198,0.1177521c0.6426888-0.2695389,0.4773827-0.9679642,0.722168-1.4605865  c0.4654465-0.7641296,1.7190857-0.6763306,2.0405579,0.15242c0.355114,0.8243103,1.4647751,0.7709274,1.9196854,0.058342  c0.5178871-0.4957962,1.2592239-0.6202774,1.89785-0.4371338c0.9118538,0.2280273,1.4969025,1.217453,1.3605423,2.1192093  c-0.1366119,0.537941-0.3674316,1.0271378,0.0416451,1.5042648c0.2295494,0.2975998,0.6459885,0.4458923,1.0146904,0.3900299  c1.480648,0.0210114,1.5004539,2.2517624,0,2.2670593H48.3474426c-0.4702721,0-0.8531952-0.3778458-0.8531952-0.8420181  c-0.0096474-0.4996033,0.4893188-0.9287415,1.0258675-0.8283157C49.2516785,82.1484909,49.8760834,81.3760452,49.6252022,80.6840286  z M64.9298935,79.5372925c0.032753-0.465004-0.0411377-0.9320374-0.175087-1.3767853h6.5207214  c0.2650986,2.2151947,1.3666306,4.1741791,2.9816132,5.5538864h-7.3633804  C67.5806351,82.0637436,66.5791473,80.0515594,64.9298935,79.5372925z M47.6415253,79.4342041  c-0.062973,0.208725-0.1056328,0.4184723-0.1279793,0.6256714c-1.4913139,0.4089508-2.4822617,2.1333694-1.9604416,3.6545181  h-5.2075348c1.616497-1.3796463,2.7189217-3.3386307,2.9832611-5.5538864h5.0907288  C48.0767555,78.5099716,47.8058167,78.9400558,47.6415253,79.4342041z M29.1252975,83.7143936h-4.1467552l0.0983963-0.4542084  c0.7834911-0.5083008,1.5219116-1.0893478,2.1879616-1.7544479C27.7600574,82.3518219,28.3917007,83.0913849,29.1252975,83.7143936z   M28.8384857,74.4896088c-0.4524975,2.1010513-1.5457802,4.0377579-3.0671844,5.5663986l1.1878719-5.4814606  c0.7366409,0.0632248,1.5349884-0.12677,1.9816456-0.7189941C28.9066658,74.067009,28.8841934,74.2815781,28.8384857,74.4896088z   M2.9470742,74.0176239c0.452498,0.4840469,1.1860931,0.6038361,1.8447797,0.5569229l1.1430521,5.2875214  C4.4118519,78.2737579,3.3491676,76.2500839,2.9470742,74.0176239z M5.6308284,72.4923477  c-0.005713,0.0060272-1.1906633-0.0000687-1.1985354,0.0020294v-0.96035h21.9535122  c0.0043163,0.0029144,0.9242935,0,0.9293728,0.0010147c0,0.2418671,0,0.717598,0,0.9593353  c-0.0088863-0.0019684-1.187109,0.0038071-1.1944733-0.0020294H5.6308284z M21.1386585,91.5150299l-10.5593004-0.0116806  L9.0513525,84.434021c0.7664785,0.3130951,1.5691414,0.5550232,2.4016409,0.7226181  c0.0684338,0.8150406,0.7459106,1.4596329,1.5782833,1.4596329h5.6849174c0.8195496,0,1.4885197-0.6249771,1.5744743-1.4221191  c0.8115501-0.1554642,1.6072311-0.3812714,2.3745995-0.6827469L21.1386585,91.5150299z M13.5198326,84.5361023v-0.2798309h4.7078056  v0.2798309H13.5198326z M23.2239056,81.9490967c-0.9616203,0.5278473-1.9935799,0.9215622-3.0664215,1.1532669  c-0.2526569-0.5451813-0.801775-0.9262619-1.4412899-0.9262619h-5.6849174c-0.6274538,0-1.1662865,0.3680725-1.425292,0.8968124  c-1.1124544-0.250885-2.1549511-0.6716995-3.1127644-1.2210083L6.92027,74.5745468h17.9109955L23.2239056,81.9490967z   M30.3714428,91.5150299h-2.7220974v-2.2254105h2.7220974V91.5150299z M91.8766251,91.5150299h-2.7220993v-2.2254105h2.7220993  V91.5150299z M97.0130615,85.7945633v1.4148788H24.221077l0.3066177-1.4148788  C37.1464691,85.7945633,85.3593369,85.7945633,97.0130615,85.7945633z M79.89711,83.7143936  c-3.6376343,0.0121918-6.6102295-2.9475174-6.6089554-6.587883c0.3090286-8.7190857,12.8695221-8.7182007,13.1777954,0.0000687  C86.46595,80.7529068,83.5209045,83.7033463,79.89711,83.7143936z M97.0130615,72.1591949  c0,2.1619339-1.7500687,3.9211349-3.900322,3.9211349h-4.6285782c-1.5878067-10.0712509-15.6398697-10.0916901-17.2142181,0  h-7.9052582c-1.321434-0.9685974-3.1773872-1.0643921-4.5808411-0.2173615  c-1.2833481-1.2025909-3.3828163-1.0553818-4.5645943,0.2173615c0,0-10.8855934,0-10.8873711,0  c-0.8650055-6.6794815-8.8910027-10.0226822-14.1681118-5.5950241c-0.0253925-0.0457077-0.0518017-0.0904007-0.0792255-0.1335678  c1.9142284-2.0270309,0.7495918-5.5227203-1.9267979-6.0678329c-0.0385971-2.9729805-3.5356789-4.9126663-6.0840912-3.3670769  c-0.5836506-0.6337357-1.4941063-0.9836502-2.3681221-0.9079132c-0.2397079-0.6007309-0.640913-1.1793022-1.112709-1.6328773  c1.9217205-1.481411,4.3076172-2.2965164,6.7280502-2.2965164h5.8971996c0.3737812,0,0.7191219-0.2011108,0.9039803-0.5261383  l7.4674835-13.1331024c1.1629868-2.0319252,3.3274612-3.2939415,5.6493683-3.2939415h13.6876831  c-0.7087097,1.4007225-0.4462776,3.1577072,0.6237717,4.2744141c-0.0001297,0.0000648-0.0001297,11.6432533-0.0001297,11.6432533  c0,0.5743828,0.4651947,1.0400848,1.0400848,1.0400848h20.2918129c0.3707352,0,0.7140427-0.1975555,0.8999176-0.5185204  c0.1858749-0.3204536,0.1868896-0.7165794,0.0030518-1.0380516c0,0-6.396553-11.1742477-6.3969345-11.1748199  c-0.3833008-0.6802063-0.9291153-1.2639198-1.5974503-1.6709671c-0.1463928-0.0902061-0.5738754-0.2117729-0.6208496-0.3792381  c0.0556107-0.6668777,0.00914-1.367527-0.2813568-1.9887581c1.713501,0.4215202,3.2126846,1.532196,4.1054916,3.1045113  l7.4878006,13.1361504c0.1858749,0.3245201,0.5302048,0.5251236,0.9039841,0.5251236  c2.6088409-0.1316605,5.3370361,0.2613525,7.5073471,1.7229576c-1.155365,0.2707481-2.0204926,1.3035355-2.0204926,2.5399666  v3.8855896c0,1.4346924,1.1731415,2.6022491,2.615448,2.6022491h4.5160904  c0.0027924,0.091156,0.0088882,0.1853027,0.0088882,0.2742386V72.1591949z M52.3503494,62.7344398h-3.2177658  c-1.36092-0.0057144-1.3592682-2.0745201,0-2.0801697h3.2177658C53.7112694,60.6599197,53.7096176,62.7287903,52.3503494,62.7344398  z M78.9365082,62.7344398h-3.2177658c-1.3609238-0.0057144-1.3592682-2.0745201,0-2.0801697h3.2177658  C80.2974243,60.6599197,80.2957764,62.7287903,78.9365082,62.7344398z M98.2715225,6.404798H6.4301906  c-0.5748906,0-1.0400848,0.4657021-1.0400848,1.0400848v4.8804765c0,0.5743837,0.4651942,1.0400858,1.0400848,1.0400858h6.5523324  v1.7490492c0,0.9816818,0.7983465,1.7800274,1.77952,1.7800274h5.2562885c0.9811745,0,1.77952-0.7983456,1.77952-1.7800274  v-1.7490492h8.6650047v1.7490492c0,0.9816818,0.7983475,1.7800274,1.7795219,1.7800274h5.2562866  c0.9811745,0,1.7795219-0.7983456,1.7795219-1.7800274v-1.7490492h8.6650047v1.7490492  c0,0.9816818,0.7983475,1.7800274,1.7795219,1.7800274h5.2562866c0.9811745,0,1.7795219-0.7983456,1.7795219-1.7800274v-1.7490492  h8.6650009v1.7490492c0,0.9816818,0.7983475,1.7800274,1.7795258,1.7800274h5.2562866  c0.9811707,0,1.7795181-0.7983456,1.7795181-1.7800274v-1.7490492h8.6650085v1.7490492  c0,0.9816818,0.7983475,1.7800274,1.7795181,1.7800274h5.2562866c0.9811783,0,1.7795258-0.7983456,1.7795258-1.7800274v-1.7490492  h6.55233c0.5748901,0,1.0400848-0.4657021,1.0400848-1.0400858V7.4448829  C99.3116074,6.8705001,98.8464127,6.404798,98.2715225,6.404798z M19.7176819,14.814352h-4.6549892v-1.4489069h4.6549892V14.814352z   M37.1980171,14.814352H32.543026v-1.4489069h4.6549911V14.814352z M54.6783524,14.814352h-4.6549911v-1.4489069h4.6549911  V14.814352z M72.1586838,14.814352h-4.6549911v-1.4489069h4.6549911V14.814352z M89.6390228,14.814352h-4.6549911v-1.4489069  h4.6549911V14.814352z M97.2314377,11.2852745H7.4702759V8.4849682h89.7611618V11.2852745z M13.4944401,22.1035805  c0,0,0-1.1873627,0-1.1872997c0.0054588-1.3604126,2.0745831-1.3599052,2.0801697-0.0000629v1.1873627  C15.56915,23.4639301,13.5000257,23.4633598,13.4944401,22.1035805z M26.1003914,22.1035805c0,0,0-1.1873627,0-1.1872997  c0.0054588-1.3604126,2.0745831-1.3599052,2.0801697-0.0000629v1.1873627  C28.1751022,23.4639301,26.105978,23.4633598,26.1003914,22.1035805z M19.7176819,26.0074539c0,0,0-1.1873627,0-1.1872997  c0.0054607-1.3604126,2.074585-1.3599052,2.0801697-0.0000629v1.1873627  C21.7923927,27.3678036,19.7232685,27.3672333,19.7176819,26.0074539z M32.2342529,26.0074539c0,0,0-1.1873627,0-1.1872997  c0.0054588-1.3604126,2.0745811-1.3599052,2.0801697-0.0000629v1.1873627  C34.3089638,27.3678036,32.2398376,27.3672333,32.2342529,26.0074539z M44.7498055,26.0074539c0,0,0-1.1873627,0-1.1872997  c0.0054588-1.3604126,2.074585-1.3599052,2.0801697-0.0000629v1.1873627  C46.8245163,27.3678036,44.7553902,27.3672333,44.7498055,26.0074539z M57.2663765,26.0074539c0,0,0-1.1873627,0-1.1872997  c0.0054588-1.3604126,2.0745811-1.3599052,2.0801697-0.0000629v1.1873627  C59.3410835,27.3678036,57.2719612,27.3672333,57.2663765,26.0074539z M69.781929,26.0074539c0,0,0-1.1873627,0-1.1872997  c0.0054626-1.3604126,2.074585-1.3599052,2.0801697-0.0000629v1.1873627  C71.856636,27.3678036,69.7875137,27.3672333,69.781929,26.0074539z M82.2985001,26.0074539c0,0,0-1.1873627,0-1.1872997  c0.005455-1.3604126,2.074585-1.3599052,2.0801697-0.0000629v1.1873627  C84.3732071,27.3678036,82.3040848,27.3672333,82.2985001,26.0074539z M38.7053261,22.1035805c0,0,0-1.1873627,0-1.1872997  c0.0054588-1.3604126,2.074585-1.3599052,2.0801697-0.0000629v1.1873627  C40.7800369,23.4639301,38.7109146,23.4633598,38.7053261,22.1035805z M51.3102646,22.1035805c0,0,0-1.1873627,0-1.1872997  c0.0054588-1.3604126,2.0745811-1.3599052,2.0801697-0.0000629v1.1873627  C53.3849754,23.4639301,51.3158493,23.4633598,51.3102646,22.1035805z M63.916214,22.1035805c0,0,0-1.1873627,0-1.1872997  c0.0054588-1.3604126,2.074585-1.3599052,2.0801697-0.0000629v1.1873627  C65.9909286,23.4639301,63.9218025,23.4633598,63.916214,22.1035805z M76.5211487,22.1035805c0,0,0-1.1873627,0-1.1872997  c0.0054626-1.3604126,2.074585-1.3599052,2.0801697-0.0000629v1.1873627  C78.5958633,23.4639301,76.526741,23.4633598,76.5211487,22.1035805z M89.1260834,22.1035805c0,0,0-1.1873627,0-1.1872997  c0.0054626-1.3604126,2.074585-1.3599052,2.0801697-0.0000629v1.1873627  C91.200798,23.4639301,89.1316757,23.4633598,89.1260834,22.1035805z"></path></svg>