<svg xmlns="http://www.w3.org/2000/svg" fill="#004553" version="1.1" viewBox="6.25 15.62 87.53 68.77">  <g>   <path d="m34.734 35.988c0 0.52344 0.28516 1.0078 0.74609 1.2578l3.7109 2.0312 2.0312 3.7109c0.25 0.46094 0.73438 0.74609 1.2578 0.74609 0.52344 0 1.0078-0.28516 1.2578-0.74609l2.0312-3.7109 3.7109-2.0312c0.46094-0.25 0.74609-0.73438 0.74609-1.2578 0-0.52344-0.28516-1.0078-0.74609-1.2578l-3.7109-2.0312-2.0312-3.7109c-0.5-0.92188-2.0156-0.92188-2.5156 0l-2.0312 3.7109-3.7109 2.0312c-0.46094 0.25-0.74609 0.73047-0.74609 1.2578zm6.2031-0.97266c0.24219-0.13281 0.4375-0.32812 0.57031-0.57031l0.97266-1.7812 0.97266 1.7812c0.13281 0.24219 0.32812 0.4375 0.57031 0.57031l1.7812 0.97266-1.7812 0.97266c-0.24219 0.13281-0.4375 0.32812-0.57031 0.57031l-0.97266 1.7812-0.97266-1.7812c-0.13281-0.24219-0.32812-0.4375-0.57031-0.57031l-1.7812-0.97266z"></path>   <path d="m25.312 23.344 2.918 1.5977 1.5977 2.918c0.25 0.46094 0.73438 0.74609 1.2578 0.74609 0.52344 0 1.0078-0.28516 1.2578-0.74609l1.5977-2.9219 2.9141-1.5938c0.46094-0.25 0.74609-0.73438 0.74609-1.2578 0-0.52344-0.28516-1.0078-0.74609-1.2578l-2.9141-1.5938-1.5977-2.9219c-0.5-0.92188-2.0156-0.92188-2.5156 0l-1.5977 2.918-2.918 1.5977c-0.46094 0.25-0.74609 0.73438-0.74609 1.2578-0.003906 0.52734 0.28516 1.0078 0.74609 1.2578zm4.6602-1.7969c0.24219-0.13281 0.4375-0.32812 0.57031-0.57031l0.53906-0.98437 0.53906 0.98437c0.13281 0.24219 0.32812 0.4375 0.57031 0.57031l0.98438 0.53906-0.98438 0.53906c-0.24219 0.13281-0.4375 0.32812-0.57031 0.57031l-0.53906 0.98438-0.53906-0.98438c-0.13281-0.24219-0.32812-0.4375-0.57031-0.57031l-0.98438-0.53906z"></path>   <path d="m92.316 45.531c0.79297 0 1.4336-0.64062 1.4336-1.4336 0-0.79297-0.64062-1.4336-1.4336-1.4336h-4.6602v-3.1797h4.6641c0.79297 0 1.4336-0.64062 1.4336-1.4336s-0.64062-1.4336-1.4336-1.4336h-4.6641v-0.046876c0-2.7656-2.25-5.0195-5.0195-5.0195h-29.738c-0.79297 0-1.4336 0.64062-1.4336 1.4336s0.64062 1.4336 1.4336 1.4336h29.738c1.1875 0 2.1484 0.96484 2.1484 2.1484v1.457c0 0.007812-0.003906 0.015624-0.003906 0.023437s0.003906 0.015625 0.003906 0.023437v6.0078c0 0.007813-0.003906 0.015625-0.003906 0.023437 0 0.007813 0.003906 0.015626 0.003906 0.023438v6.0078c0 0.007813-0.003906 0.015626-0.003906 0.023438s0.003906 0.015625 0.003906 0.023438v6.0078c0 0.007812-0.003906 0.015625-0.003906 0.023438 0 0.007812 0.003906 0.015624 0.003906 0.023437v6.0078c0 0.007812-0.003906 0.015624-0.003906 0.023437s0.003906 0.015625 0.003906 0.023437v6.0078c0 0.007813-0.003906 0.015625-0.003906 0.023437 0 0.007813 0.003906 0.015626 0.003906 0.023438v1.4375c0 1.1875-0.96484 2.1484-2.1484 2.1484l-28.879-0.023438v-2.3516h22.973c2.6719 0 4.8438-2.1719 4.8438-4.8438v-23.066c0-2.6719-2.1719-4.8438-4.8438-4.8438l-23.406-0.003906c-0.79297 0-1.4336 0.64062-1.4336 1.4336s0.64062 1.4336 1.4336 1.4336h23.402c1.1094 0 1.9805 0.86719 1.9805 1.9805v23.059c0 1.1094-0.86719 1.9805-1.9805 1.9805l-21-0.003906v-6.0234h6.0586c3.1797 0 5.7656-2.5859 5.7656-5.7656v-5.7344c0-0.79297-0.64062-1.4336-1.4336-1.4336l-32.234 0.003906c-0.79297 0-1.4336 0.64063-1.4336 1.4336v5.7344c0 3.1797 2.5859 5.7656 5.7656 5.7656h6.0586v6.0234l-21-0.003906c-1.1094 0-1.9805-0.86719-1.9805-1.9805v-23.055c0-1.0938 0.89062-1.9805 1.9805-1.9805h8.375c0.79297 0 1.4336-0.64062 1.4336-1.4336s-0.64062-1.4336-1.4336-1.4336h-8.375c-2.6719 0-4.8438 2.1719-4.8438 4.8438v23.059c0 2.6719 2.1719 4.8438 4.8438 4.8438h22.973v2.3516l-28.883 0.003907c-1.1875 0-2.1484-0.96484-2.1484-2.1484v-1.4375c0-0.007812 0.003906-0.015625 0.003906-0.023438 0-0.007812-0.003906-0.015624-0.003906-0.023437v-6.0078c0-0.007812 0.003906-0.015624 0.003906-0.023437s-0.003906-0.015625-0.003906-0.023437v-6.0078c0-0.007813 0.003906-0.015625 0.003906-0.023437 0-0.007813-0.003906-0.015626-0.003906-0.023438v-6.0078c0-0.007813 0.003906-0.015626 0.003906-0.023438s-0.003906-0.015625-0.003906-0.023438v-6.0078c0-0.007812 0.003906-0.015625 0.003906-0.023438 0-0.007812-0.003906-0.015624-0.003906-0.023437v-6.0078c0-0.007812 0.003906-0.015624 0.003906-0.023437s-0.003906-0.015625-0.003906-0.023437v-1.457c0-1.1875 0.96484-2.1484 2.1484-2.1484h14.711c0.79297 0 1.4336-0.64062 1.4336-1.4336s-0.64062-1.4336-1.4336-1.4336l-14.711 0.023438c-2.7656 0-5.0195 2.25-5.0195 5.0195v0.046875h-4.6602c-0.79297 0-1.4336 0.64062-1.4336 1.4336s0.64062 1.4336 1.4336 1.4336h4.6602v3.1797h-4.6602c-0.79297 0-1.4336 0.64062-1.4336 1.4336 0 0.79297 0.64062 1.4336 1.4336 1.4336h4.6602v3.1797h-4.6602c-0.79297 0-1.4336 0.64062-1.4336 1.4336s0.64062 1.4336 1.4336 1.4336h4.6602v3.1797l-4.6602 0.003906c-0.79297 0-1.4336 0.64062-1.4336 1.4336s0.64062 1.4336 1.4336 1.4336h4.6602v3.1797h-4.6602c-0.79297 0-1.4336 0.64062-1.4336 1.4336s0.64062 1.4336 1.4336 1.4336h4.6602v3.1797h-4.6602c-0.79297 0-1.4336 0.64062-1.4336 1.4336s0.64062 1.4336 1.4336 1.4336h4.6602v0.023437c0 2.7656 2.25 5.0195 5.0195 5.0195h28.883v8.1719c0 0.79297 0.64062 1.4336 1.4336 1.4336h4.6445c0.79297 0 1.4336-0.64062 1.4336-1.4336v-8.1719l28.879 0.003907c2.7656 0 5.0195-2.25 5.0195-5.0195v-0.023438h4.6641c0.79297 0 1.4336-0.64062 1.4336-1.4336 0-0.79297-0.64062-1.4336-1.4336-1.4336l-4.6641-0.003906v-3.1797h4.6641c0.79297 0 1.4336-0.64062 1.4336-1.4336s-0.64062-1.4336-1.4336-1.4336h-4.6641v-3.1797h4.6641c0.79297 0 1.4336-0.64062 1.4336-1.4336s-0.64062-1.4336-1.4336-1.4336h-4.6641v-3.1797h4.6641c0.79297 0 1.4336-0.64062 1.4336-1.4336s-0.64062-1.4336-1.4336-1.4336l-4.6641-0.003906v-3.1797h4.6602zm-45.176 14.07c0-1.5781 1.2812-2.8594 2.8594-2.8594s2.8594 1.2812 2.8594 2.8594v7.0703h-5.7188zm-11.824-4.707v-4.3047h29.367v4.3047c0 1.5938-1.2969 2.8984-2.8984 2.8984h-6.3828c-0.76562-2.2656-2.8828-3.9141-5.4062-3.9141-2.5234 0-4.6445 1.6484-5.4062 3.9141h-6.3828c-1.5898-0.003907-2.8906-1.3008-2.8906-2.8984zm15.574 26.613h-1.7773v-11.961h1.7773z"></path>  </g></svg>