<svg xmlns="http://www.w3.org/2000/svg" xmlns:xlink="http://www.w3.org/1999/xlink" version="1.1" x="0px" y="0px" style="enable-background:new 0 0 512 512;" fill="#004553" xml:space="preserve" viewBox="35.03 32.02 441.93 447.98"><style type="text/css"> 	.st0{fill:none;} </style><g><path class="st0" d="M192.15,238.3c0.7-1.27,1.74-2.32,3.01-3.01l8.28-4.53l-8.29-4.54c-1.27-0.7-2.31-1.74-3.01-3.01l-1.39-2.53   c0,0,0-0.01-0.01-0.01l-3.14-5.74l-4.53,8.28c-0.7,1.27-1.74,2.32-3.01,3.01l-8.29,4.54l8.28,4.53c1.27,0.7,2.32,1.74,3.01,3.01   l4.53,8.28L192.15,238.3z"></path><path class="st0" d="M245.28,61.3c0.63-4.66,1.25-9.36,1.93-14.11h-55.31c-3.62,83.02-30.81,161.6-80.48,233.93   c0.69,0.03,1.37,0.13,2.05,0.21c11-0.38,23.47-6.92,35.15-18.44c5.85-5.74,11.5-11.91,17-18.24l-13.26-7.26   c-2.44-1.33-3.95-3.88-3.95-6.65c0-2.77,1.51-5.32,3.94-6.65l18.5-10.12l10.12-18.5c2.65-4.87,10.65-4.87,13.3,0l3.33,6.08   c18.75-29.66,32.53-61.8,40.4-96.02C241.28,91.2,243.23,76.68,245.28,61.3z"></path><path class="st0" d="M461.02,312.92c0-9.25-7.52-16.77-16.77-16.77h-42.21c-9.25,0-16.77,7.52-16.77,16.77s7.52,16.77,16.77,16.77   h42.21C453.5,329.69,461.02,322.16,461.02,312.92z"></path><path class="st0" d="M418.19,280.28c0.15,0.22,0.18,0.47,0.31,0.7h25.75c6.47,0,12.48,1.96,17.52,5.29l-0.11-238.54   c-19.04-0.02-39.96-0.13-61.16-0.24c-22.02-0.11-44.14-0.22-65.02-0.24C339.25,131.06,366.2,207.42,418.19,280.28z M418.66,136.94   l9.27,16.95l16.96,9.27c2.44,1.33,3.95,3.88,3.95,6.66c0,2.77-1.51,5.32-3.95,6.65l-16.96,9.28l-9.28,16.96   c-1.33,2.44-3.88,3.95-6.65,3.95s-5.32-1.51-6.65-3.94l-9.28-16.96l-16.96-9.28c-2.43-1.33-3.94-3.88-3.94-6.65   s1.51-5.32,3.95-6.65l16.96-9.28l9.28-16.96c1.33-2.43,3.88-3.94,6.65-3.94S417.34,134.51,418.66,136.94z M350.47,92.86l13.28-7.27   l7.27-13.29c1.33-2.43,3.88-3.94,6.65-3.94c2.78,0,5.32,1.51,6.66,3.95l7.26,13.28l13.28,7.26c2.44,1.33,3.95,3.89,3.95,6.66   s-1.51,5.32-3.95,6.66l-13.28,7.26l-7.26,13.28c-1.33,2.44-3.88,3.95-6.66,3.95c-2.77,0-5.32-1.51-6.65-3.94l-7.27-13.29   l-13.28-7.27c-2.44-1.33-3.95-3.88-3.95-6.65S348.04,94.18,350.47,92.86z"></path><path class="st0" d="M398.57,169.82l6.75,3.69c1.27,0.7,2.31,1.74,3.01,3.01l3.69,6.75l3.69-6.74c0.7-1.27,1.74-2.32,3.01-3.01   l6.75-3.69l-6.75-3.68c-1.27-0.7-2.32-1.75-3.01-3.02l-3.69-6.74l-3.69,6.75c-0.7,1.27-1.74,2.32-3.01,3.01L398.57,169.82z"></path><path class="st0" d="M109.97,296.14H67.75c-9.25,0-16.77,7.52-16.77,16.77s7.52,16.77,16.77,16.77h42.21   c9.25,0,16.77-7.52,16.77-16.77S119.22,296.14,109.97,296.14z"></path><path class="st0" d="M375.99,104.19l1.69,3.08l1.67-3.07c0.7-1.27,1.75-2.33,3.02-3.02l3.07-1.67l-3.07-1.67   c-1.27-0.7-2.33-1.75-3.02-3.02l-1.67-3.07l-1.69,3.08c-0.7,1.27-1.74,2.31-3.01,3.01l-3.07,1.68l3.07,1.68   C374.25,101.88,375.29,102.93,375.99,104.19z"></path><path class="st0" d="M273.97,105.47c13.65,59,43.75,111.97,89.46,157.45c6.75,6.72,20.28,18.03,35.12,18.36   c0.06,0,0.12,0.03,0.19,0.03c0.52-0.05,1.04-0.13,1.57-0.16c-50.28-73.16-76.59-149.85-80.23-233.93h-55.31   c0.63,4.53,1.23,9.03,1.82,13.48C268.67,76.3,270.62,91.02,273.97,105.47z"></path><path class="st0" d="M416.85,344.85h-14.81c-1.21,0-2.36-0.23-3.54-0.36c-4.86,3.79-9.72,9.14-15.15,16.85   c-23.79,33.74-36.8,67.66-39.64,103.46h39.4C382.34,430.3,398.13,374.58,416.85,344.85z"></path><path class="st0" d="M444.25,344.85h-8.97c-0.1,0.15-0.13,0.32-0.25,0.46c-18.96,22.83-37.71,85.19-36.8,119.49h63.56V339.59v-0.03   C456.75,342.89,450.73,344.85,444.25,344.85z"></path><path class="st0" d="M67.75,280.98h25.72c0.13-0.23,0.16-0.49,0.32-0.71c52.02-72.87,78.98-149.23,82.7-233.02   c-20.87,0.02-42.98,0.13-64.98,0.24C90.3,47.6,69.39,47.7,50.34,47.72l-0.11,238.54C55.27,282.94,61.28,280.98,67.75,280.98z"></path><path class="st0" d="M113.51,344.49c-1.18,0.13-2.33,0.36-3.54,0.36H95.15c18.71,29.73,34.51,85.45,33.74,119.95h39.4   c-2.84-35.79-15.85-69.72-39.64-103.46C123.22,353.64,118.37,348.29,113.51,344.49z"></path><path class="st0" d="M248.41,124.51c-9.12,32.24-22.97,62.72-41.55,90.83l16.03,8.77c2.43,1.33,3.94,3.88,3.94,6.65   c0,2.77-1.51,5.32-3.95,6.65l-18.49,10.12l-10.12,18.49c-1.33,2.44-3.88,3.95-6.65,3.95c-2.77,0-5.32-1.51-6.65-3.95l-5.35-9.76   c-5.32,6.04-10.76,11.94-16.38,17.46c-8.21,8.1-16.97,13.96-25.74,17.8c5.17,5.68,8.4,13.14,8.4,21.4   c0,10.36-5.04,19.49-12.71,25.33c3.88,3.92,7.77,8.56,11.85,14.36c9.23,13.09,16.81,26.23,23.03,39.49h84.33V124.51z"></path><path class="st0" d="M76.97,345.31c-0.12-0.14-0.14-0.31-0.25-0.46h-8.97c-6.48,0-12.5-1.97-17.54-5.3v0.03V464.8h63.56   C114.68,430.5,95.93,368.14,76.97,345.31z"></path><path class="st0" d="M382.8,338.25c-7.67-5.84-12.71-14.97-12.71-25.33c0-8.25,3.23-15.7,8.38-21.38   c-8.77-3.84-17.53-9.7-25.74-17.87c-43.52-43.3-73.34-93.22-89.16-148.5V392.1h84.34c6.22-13.26,13.8-26.4,23.03-39.49   C375.03,346.81,378.92,342.16,382.8,338.25z"></path><path d="M476.95,335.13l-0.13-294.98c0-4.19-3.39-7.58-7.58-7.58c-20.98,0-44.64-0.12-68.67-0.24   c-24.84-0.13-50.07-0.26-73.17-0.26h-71.26c-0.05,0-0.09-0.03-0.14-0.03h-71.43c-0.05,0-0.1,0.03-0.15,0.03   c-23.05,0-48.21,0.13-72.98,0.26c-24.04,0.13-47.69,0.24-68.67,0.24c-4.19,0-7.58,3.39-7.58,7.58l-0.13,294.98c0,0,0,0.01,0,0.01   v137.25c0,4.19,3.39,7.58,7.58,7.58h78.19h55.51c2.06,0,4.03-0.84,5.46-2.33c1.43-1.48,2.19-3.48,2.11-5.54   c-0.83-22.26-5.33-43.75-13.37-64.84h170.93c-8.04,21.09-12.54,42.58-13.37,64.84c-0.08,2.06,0.68,4.06,2.11,5.54   c1.44,1.49,3.41,2.33,5.46,2.33h55.51h78.19c4.19,0,7.58-3.39,7.58-7.58V335.14C476.95,335.13,476.95,335.13,476.95,335.13z    M461.66,47.72l0.11,238.54c-5.04-3.32-11.05-5.29-17.52-5.29H418.5c-0.13-0.23-0.16-0.48-0.31-0.7   c-51.99-72.87-78.94-149.22-82.71-233.04c20.88,0.02,43,0.13,65.02,0.24C421.7,47.6,442.61,47.7,461.66,47.72z M402.03,329.69   c-9.25,0-16.77-7.52-16.77-16.77s7.52-16.77,16.77-16.77h42.21c9.25,0,16.77,7.52,16.77,16.77s-7.52,16.77-16.77,16.77H402.03z    M320.08,47.23c3.64,84.08,29.95,160.76,80.23,233.93c-0.53,0.03-1.04,0.1-1.57,0.16c-0.06,0-0.12-0.03-0.19-0.03   c-14.84-0.33-28.37-11.65-35.12-18.36c-45.71-45.48-75.81-98.45-89.46-157.45c-3.35-14.45-5.3-29.17-7.38-44.75   c-0.59-4.46-1.19-8.95-1.82-13.48H320.08z M183.09,238.3c-0.7-1.27-1.74-2.32-3.01-3.01l-8.28-4.53l8.29-4.54   c1.27-0.7,2.31-1.74,3.01-3.01l4.53-8.28l3.14,5.74c0,0,0,0.01,0.01,0.01l1.39,2.53c0.7,1.27,1.74,2.32,3.01,3.01l8.29,4.54   l-8.28,4.53c-1.27,0.7-2.32,1.74-3.01,3.01l-4.53,8.28L183.09,238.3z M197.6,201.56l-3.33-6.08c-2.65-4.87-10.65-4.87-13.3,0   l-10.12,18.5l-18.5,10.12c-2.43,1.33-3.94,3.88-3.94,6.65c0,2.77,1.51,5.32,3.95,6.65l13.26,7.26c-5.5,6.33-11.15,12.5-17,18.24   c-11.67,11.52-24.15,18.05-35.15,18.44c-0.68-0.08-1.36-0.17-2.05-0.21c49.66-72.33,76.86-150.91,80.48-233.93h55.31   c-0.67,4.75-1.3,9.45-1.93,14.11c-2.05,15.37-4,29.9-7.29,44.24C230.12,139.76,216.35,171.91,197.6,201.56z M109.97,329.69H67.75   c-9.25,0-16.77-7.52-16.77-16.77s7.52-16.77,16.77-16.77h42.21c9.25,0,16.77,7.52,16.77,16.77S119.22,329.69,109.97,329.69z    M111.51,47.49c22.01-0.11,44.11-0.22,64.98-0.24c-3.72,83.79-30.68,160.15-82.7,233.02c-0.16,0.22-0.19,0.48-0.32,0.71H67.75   c-6.47,0-12.48,1.96-17.52,5.29l0.11-238.54C69.39,47.7,90.3,47.6,111.51,47.49z M50.21,339.59v-0.03   c5.04,3.33,11.06,5.3,17.54,5.3h8.97c0.1,0.15,0.13,0.32,0.25,0.46c18.96,22.83,37.71,85.19,36.8,119.49H50.21V339.59z    M128.89,464.8c0.77-34.5-15.03-90.22-33.74-119.95h14.81c1.21,0,2.36-0.23,3.54-0.36c4.86,3.79,9.72,9.14,15.15,16.85   c23.79,33.74,36.8,67.66,39.64,103.46H128.89z M141.05,352.61c-4.09-5.8-7.97-10.44-11.85-14.36c7.67-5.84,12.71-14.97,12.71-25.33   c0-8.26-3.24-15.73-8.4-21.4c8.77-3.85,17.53-9.7,25.74-17.8c5.62-5.52,11.06-11.42,16.38-17.46l5.35,9.76   c1.33,2.44,3.88,3.95,6.65,3.95c2.77,0,5.32-1.51,6.65-3.95l10.12-18.49l18.49-10.12c2.44-1.33,3.95-3.88,3.95-6.65   c0-2.77-1.51-5.32-3.94-6.65l-16.03-8.77c18.58-28.11,32.43-58.58,41.55-90.83V392.1h-84.33   C157.86,378.83,150.28,365.69,141.05,352.61z M263.58,392.1V125.17c15.82,55.28,45.64,105.21,89.16,148.5   c8.2,8.16,16.96,14.03,25.74,17.87c-5.15,5.67-8.38,13.13-8.38,21.38c0,10.36,5.04,19.49,12.71,25.33   c-3.88,3.92-7.77,8.56-11.85,14.36c-9.23,13.09-16.81,26.23-23.03,39.49H263.58z M383.34,361.34c5.43-7.71,10.29-13.05,15.15-16.85   c1.18,0.13,2.33,0.36,3.54,0.36h14.81c-18.71,29.73-34.51,85.45-33.74,119.95h-39.4C346.54,429.01,359.55,395.09,383.34,361.34z    M461.79,464.8h-63.56c-0.91-34.3,17.85-96.66,36.8-119.49c0.12-0.14,0.14-0.31,0.25-0.46h8.97c6.48,0,12.5-1.97,17.54-5.3v0.03   V464.8z"></path><path d="M405.36,136.94l-9.28,16.96l-16.96,9.28c-2.44,1.33-3.95,3.88-3.95,6.65s1.51,5.32,3.94,6.65l16.96,9.28l9.28,16.96   c1.33,2.43,3.88,3.94,6.65,3.94s5.32-1.51,6.65-3.95l9.28-16.96l16.96-9.28c2.44-1.33,3.95-3.88,3.95-6.65   c0-2.78-1.51-5.32-3.95-6.66l-16.96-9.27l-9.27-16.95c-1.33-2.44-3.88-3.95-6.65-3.95S406.69,134.51,405.36,136.94z M412.01,156.38   l3.69,6.74c0.7,1.27,1.74,2.33,3.01,3.02l6.75,3.68l-6.75,3.69c-1.27,0.7-2.32,1.74-3.01,3.01l-3.69,6.74l-3.69-6.75   c-0.7-1.27-1.74-2.31-3.01-3.01l-6.75-3.69l6.74-3.69c1.27-0.69,2.32-1.74,3.01-3.01L412.01,156.38z"></path><path d="M350.47,106.15l13.28,7.27l7.27,13.29c1.33,2.43,3.88,3.94,6.65,3.94c2.78,0,5.32-1.51,6.66-3.95l7.26-13.28l13.28-7.26   c2.44-1.33,3.95-3.89,3.95-6.66s-1.51-5.32-3.95-6.66l-13.28-7.26l-7.26-13.28c-1.33-2.44-3.88-3.95-6.66-3.95   c-2.77,0-5.32,1.51-6.65,3.94l-7.27,13.29l-13.28,7.27c-2.44,1.33-3.95,3.88-3.95,6.65S348.04,104.83,350.47,106.15z M372.98,97.82   c1.27-0.7,2.32-1.74,3.01-3.01l1.69-3.08l1.67,3.07c0.7,1.27,1.75,2.33,3.02,3.02l3.07,1.67l-3.07,1.67   c-1.27,0.7-2.33,1.75-3.02,3.02l-1.67,3.07l-1.69-3.08c-0.7-1.27-1.74-2.31-3.01-3.01l-3.07-1.68L372.98,97.82z"></path></g></svg>