<svg xmlns="http://www.w3.org/2000/svg" fill="#004553" xmlns:xlink="http://www.w3.org/1999/xlink" version="1.1" x="0px" y="0px" enable-background="new 0 0 64 64" xml:space="preserve" viewBox="3 5.52 58 52.97"><g><g><path d="M33.0004883,56H8V32h34v4.7663994c0,0.5522461,0.4477539,1,1,1s1-0.4477539,1-1V32h2c0.0073242,0,0.0131836,0,0.0200195,0    c0.5522461,0,1-0.5645542,1-1.1168003c0-0.2285156-0.0766602-0.4978542-0.2060547-0.6663113l-7.9194336-15.7517548    C38.7250977,14.1262665,38.3789063,14,38,14H25V9.7663994C25,9.2141533,24.5522461,9,24,9h-8    c-0.5522461,0-1,0.2141533-1,0.7663994V14h-3c-0.3789063,0-0.7250977,0.0970669-0.8945313,0.4359341l-8,15.9415989    c-0.1547852,0.3100586-0.1381836,0.7658234,0.0439453,1.0607452C3.331543,31.7327118,3.6533203,32,4,32h2v24.7663994    C6,57.3186455,6.4477539,58,7,58h26.0004883c0.5522461,0,1-0.4477539,1-1S33.5527344,56,33.0004883,56z M17,11h6v3h-6V11z     M12.6181641,16H16h8h13.3818359l7,14H43H7H5.6181641L12.6181641,16z"></path><path d="M32,38c0-0.5522842-0.4477158-1-1-1H19c-0.5522842,0-1,0.4477158-1,1v12c0,0.5522842,0.4477158,1,1,1h12    c0.5522842,0,1-0.4477158,1-1V38z M30,43h-4v-4h4V43z M24,39v4h-4v-4H24z M20,45h4v4h-4V45z M26,49v-4h4v4H26z"></path><path d="M46.8560791,39.8913383l8.348999-33.1063843c0.1347656-0.5356445-0.1894531-1.0791016-0.7250977-1.2143555    c-0.5336914-0.1328125-1.0795898,0.1894531-1.2143555,0.7250977l-8.3468628,33.0979614    c-3.2365723,0.0350342-6.1057129,3.7648315-7.0159302,7.3742065c-0.0403442,0.1602783-0.0285034,0.3170776,0.0067139,0.4675903    l-2.8856201,6.9039917c-0.1123047,0.2685547-0.1015625,0.5727539,0.0283203,0.8330078    c0.1303711,0.2607422,0.3676758,0.4511719,0.6499023,0.5224609l3.074707,0.7753906    c0.2255859,0.0561523,0.4628906,0.0327148,0.6728516-0.065918L40.847168,55.54179l-0.0522461,0.2060547    c-0.1347656,0.5356445,0.1899414,1.0791016,0.7250977,1.2143555l5.8173828,1.4667969    c0.0810547,0.0205078,0.1630859,0.0302734,0.2446289,0.0302734c0.2041016,0,0.4052734-0.0625,0.5751953-0.1821289    c0.2382813-0.1674805,0.3916016-0.4301758,0.4199219-0.7197266l0.7336426-7.4483032    c0.1038208-0.1181641,0.1885376-0.2515259,0.2277832-0.4066772C50.4779663,45.977459,49.5617065,41.3892632,46.8560791,39.8913383    z M46.7006836,56.2058525l-3.722168-0.9384766l0.3261719-1.2929688c0.0947266-0.3754883-0.0361328-0.7719727-0.3349609-1.0175781    c-0.2998047-0.2460938-0.7138672-0.2963867-1.0629883-0.1308594l-2.9892578,1.4169922l-1.6000977-0.4033203l2.3392944-5.5979614    l3.819397,0.9631958l3.8193359,0.9633789L46.7006836,56.2058525z M47.7958984,48.2314873l-7.6590576-1.9316406    c1.0758057-2.9564819,3.5092163-5.3044434,5.2952881-4.8522949    C47.2396851,41.9031181,48.2739258,45.0479546,47.7958984,48.2314873z"></path><path d="M30,23.7663994c1.6542969,0,3,1.3457031,3,3c0,0.5522461,0.4477539,1,1,1s1-0.4477539,1-1c0-1.6542969,1.3457031-3,3-3    c0.5522461,0,1-0.4477539,1-1s-0.4477539-1-1-1c-1.6542969,0-3-1.3457031-3-3c0-0.5522461-0.4477539-1-1-1s-1,0.4477539-1,1    c0,1.6542969-1.3457031,3-3,3c-0.5522461,0-1,0.4477539-1,1S29.4477539,23.7663994,30,23.7663994z M34,21.7634697    c0.2851563,0.3793945,0.6235352,0.7177734,1.0029297,1.0029297C34.6235352,23.0515556,34.2851563,23.3899345,34,23.7693291    c-0.2851563-0.3793945-0.6235352-0.7177734-1.0029297-1.0029297C33.3764648,22.4812431,33.7148438,22.1428642,34,21.7634697z"></path><path d="M60,45.7663994c-1.6542969,0-3-1.3457031-3-3c0-0.5522461-0.4477539-1-1-1s-1,0.4477539-1,1c0,1.6542969-1.3457031,3-3,3    c-0.5522461,0-1,0.4477539-1,1s0.4477539,1,1,1c1.6542969,0,3,1.3457031,3,3c0,0.5522461,0.4477539,1,1,1s1-0.4477539,1-1    c0-1.6542969,1.3457031-3,3-3c0.5522461,0,1-0.4477539,1-1S60.5522461,45.7663994,60,45.7663994z M56,47.7693291    c-0.2851563-0.3793945-0.6235352-0.7177734-1.0029297-1.0029297C55.3764648,46.4812431,55.7148438,46.1428642,56,45.7634697    c0.2851563,0.3793945,0.6235352,0.7177734,1.0029297,1.0029297C56.6235352,47.0515556,56.2851563,47.3899345,56,47.7693291z"></path></g></g></svg>