<svg xmlns="http://www.w3.org/2000/svg" xmlns:xlink="http://www.w3.org/1999/xlink" version="1.1" x="0px" y="0px" enable-background="new 0 0 64 64" fill="#ffffff" xml:space="preserve" viewBox="5.65 9 52.7 46"><g><g><path d="M57.4936523,48.8081055l-6.2026978-6.201355c0.635498-1.2471313,0.9780884-2.6326294,0.9780884-4.0725708    c0-2.4018555-0.9355469-4.6601563-2.6347656-6.359375l-0.4912109-0.4907227    c-0.0541992-0.0540771-0.1213379-0.0826416-0.1835938-0.1217041c-0.6522827-0.7889404-2.3711548-3.7158203-2.7861328-5.1522217    c-0.0976563-0.3369141-0.3642578-0.5981445-0.703125-0.6884766c-0.3388672-0.0898438-0.7001953,0.0039063-0.953125,0.2470703    l-4.3762207,4.387207C39.9465332,30.5444336,40,30.8041992,40,31.0751953v0.9580078    c0-0.1269531-0.5358887-0.1987305-0.7497559-0.2026367c-0.2587891,0.0053711-0.6199951,0.1040039-0.8133545,0.2998047    l-7.7894897,7.8974609c-0.2592773,0.2641602-0.3715515,0.6494141-0.2597351,1.0024414    c0.1113281,0.3525391,0.3984528,0.6147461,0.7627106,0.6811523c1.2773438,0.234375,4.6120682,2.2714844,5.1355057,2.7949219    c0.032959,0.032959,0.0746498,0.0484009,0.111393,0.0761719l0.4140663,0.4145508    c1.6992188,1.6987305,3.9563904,2.6342773,6.3597107,2.6342773c1.4407349,0,2.8263397-0.3427734,4.073349-0.9781494    l6.2025375,6.2017822c0.5371094,0.5371094,1.251873,0.8325195,2.0116386,0.8325195s1.4745674-0.2954102,2.0351143-0.8564453    c0.5371094-0.5375977,0.8339653-1.2519531,0.8339653-2.0117188S58.0307617,49.3452148,57.4936523,48.8081055z     M33.1269531,40.3144531l5.9165039-6.0297852l0.890625,0.9750977c0.2792969,0.3061523,0.8825684,0.4072266,1.2634277,0.2578125    C41.5822754,35.3686523,42,34.9980469,42,34.5854492v-3.0859375l2.9953613-3.0532227    c0.6171875,1.3349609,1.4385986,2.8896484,2.1173096,3.862793L36.9457397,42.4663086    C35.9867554,41.7939453,34.4243164,40.8994141,33.1269531,40.3144531z M48.1157227,43.5830078    c-1.3212891,1.3208008-3.0771484,2.0483398-4.9453125,2.0483398c-1.7666016,0-3.4326172-0.6499023-4.7255859-1.8369141    l9.9863281-9.984375c1.1875,1.2929688,1.8378906,2.9584961,1.8378906,4.7241211    c0,1.8676758-0.7275391,3.6240234-2.046875,4.9428711L48.1157227,43.5830078z M56.0561523,51.4399414    c-0.3183594,0.3193359-0.8769531,0.3188477-1.1953125,0.0004883l-5.8876953-5.8862305l1.21875-1.2182617l5.8876953,5.8867188    c0.1601563,0.1591797,0.2480469,0.3710938,0.2480469,0.5966797S56.2397461,51.2568359,56.0561523,51.4399414z"></path><path d="M35.6723633,21c0,0.5522461,0.4472656,1,1,1c1.6542969,0,3,1.3457031,3,3c0,0.5522461,0.4472656,1,1,1s1-0.4477539,1-1    c0-1.6542969,1.3457031-3,3-3c0.5527344,0,1-0.4477539,1-1s-0.4472656-1-1-1c-1.6542969,0-3-1.3457031-3-3    c0-0.5522461-0.4472656-1-1-1s-1,0.4477539-1,1c0,1.6542969-1.3457031,3-3,3C36.1196289,20,35.6723633,20.4477539,35.6723633,21z     M40.6723633,19.9970703C40.9575195,20.3764648,41.2954102,20.7148438,41.675293,21    c-0.3798828,0.2851563-0.7177734,0.6235352-1.0029297,1.0029297C40.387207,21.6235352,40.0493164,21.2851563,39.6694336,21    C40.0493164,20.7148438,40.387207,20.3764648,40.6723633,19.9970703z"></path><path d="M9.6723633,18c0,0.5522461,0.4477539,1,1,1s1-0.4477539,1-1c0-1.6542969,1.3457031-3,3-3c0.5522461,0,1-0.4477539,1-1    s-0.4477539-1-1-1c-1.6542969,0-3-1.3457031-3-3c0-0.5522461-0.4477539-1-1-1s-1,0.4477539-1,1c0,1.6542969-1.3457031,3-3,3    c-0.5522461,0-1,0.4477539-1,1s0.4477539,1,1,1C8.3266602,15,9.6723633,16.3457031,9.6723633,18z M10.6723633,12.9970703    C10.9575195,13.3764648,11.2958984,13.7148438,11.675293,14c-0.3793945,0.2851563-0.7177734,0.6235352-1.0029297,1.0029297    C10.387207,14.6235352,10.0488281,14.2851563,9.6694336,14C10.0488281,13.7148438,10.387207,13.3764648,10.6723633,12.9970703z"></path><path d="M17.6723633,17h17.5c0.3896484,0,0.7675781,0.034668,1.125,0.1796875    c0.1230469,0.0498047,0.2509766,0.0544434,0.3759766,0.0544434c0.3945313,0,0.7695313-0.2459717,0.9267578-0.6346436    c0.2070313-0.5117188-0.0390625-1.0609741-0.5507813-1.2684937C36.4516602,15.0888062,35.8208008,15,35.1723633,15h-17.5    c-0.5522461,0-1,0.4477539-1,1S17.1201172,17,17.6723633,17z"></path><path d="M39.1723633,48.9228516c-0.5527344,0-1,0.4863281-1,1.0385742c0,1.6542969-1.3457031,3.0385742-3,3.0385742h-22    C11.5180664,53,10,51.5771484,10,49.9228516V20.9995117c0-0.5522461-0.4477539-1-1-1s-1,0.4477539-1,1v28.9233398    C8,52.6796875,10.4155273,55,13.1723633,55h22c2.7568359,0,5-2.2817383,5-5.0385742    C40.1723633,49.4091797,39.7250977,48.9228516,39.1723633,48.9228516z"></path><path d="M32.6723633,20c0-0.5522461-0.4477539-1-1-1h-18C13.1201172,19,13,19.4477539,13,20v30    c0,0.5522461,0.1201172,1,0.6723633,1h21C35.2250977,51,36,50.5522461,36,50v-4c0-0.5522461-0.4472656-1-1-1s-1,0.4477539-1,1v3    H15V21h16.6723633C32.2246094,21,32.6723633,20.5522461,32.6723633,20z"></path><path d="M34,24v9c0,0.5522461,0.4472656,1,1,1s1-0.4477539,1-1v-9c0-0.5522461-0.4472656-1-1-1S34,23.4477539,34,24z"></path><circle cx="18.4031372" cy="24.3674927" r="1"></circle><circle cx="24.1723633" cy="24.3674927" r="1"></circle><circle cx="29.9415894" cy="24.3674927" r="1"></circle><circle cx="18.4031372" cy="28.5897217" r="1"></circle><circle cx="24.1723633" cy="28.5897217" r="1"></circle><circle cx="29.9415894" cy="28.5897217" r="1"></circle><circle cx="18.4031372" cy="32.8119507" r="1"></circle><circle cx="24.1723633" cy="32.8119507" r="1"></circle><circle cx="29.9415894" cy="32.8119507" r="1"></circle><circle cx="18.4031372" cy="37.0341797" r="1"></circle><circle cx="24.1723633" cy="37.0341797" r="1"></circle><circle cx="29.9415894" cy="37.0341797" r="1"></circle><circle cx="18.4031372" cy="41.2564087" r="1"></circle><circle cx="24.1723633" cy="41.2564087" r="1"></circle><circle cx="18.4031372" cy="45.4786377" r="1"></circle><circle cx="24.1723633" cy="45.4786377" r="1"></circle><circle cx="29.9415894" cy="45.4786377" r="1"></circle></g></g></svg>