<svg xmlns="http://www.w3.org/2000/svg" xmlns:xlink="http://www.w3.org/1999/xlink" version="1.1" x="0px" y="0px" fill="#004553" style="enable-background:new 0 0 66 66;" xml:space="preserve" viewBox="1.65 1.87 62.7 62.27"><path d="M27,42h19.77c0.4,0,0.72-0.32,0.72-0.72c0-0.4-0.32-0.72-0.72-0.72H27c-0.4,0-0.72,0.32-0.72,0.72  C26.27,41.67,26.6,42,27,42z"></path><path d="M20.03,31.59c-0.4,0-0.72,0.32-0.72,0.72v2.55c0,0.4,0.32,0.72,0.72,0.72s0.72-0.32,0.72-0.72v-2.55  C20.75,31.91,20.43,31.59,20.03,31.59z"></path><path d="M24.31,32.98c-0.4,0-0.72,0.32-0.72,0.72v3.12c0,0.4,0.32,0.72,0.72,0.72s0.72-0.32,0.72-0.72V33.7  C25.03,33.31,24.7,32.98,24.31,32.98z"></path><path d="M28.58,37.54c0.4,0,0.72-0.32,0.72-0.72v-6.81c0-0.4-0.32-0.72-0.72-0.72s-0.72,0.32-0.72,0.72v6.81  C27.86,37.22,28.18,37.54,28.58,37.54z"></path><path d="M32.86,37.54c0.4,0,0.72-0.32,0.72-0.72v-4.51c0-0.4-0.32-0.72-0.72-0.72c-0.4,0-0.72,0.32-0.72,0.72v4.51  C32.13,37.22,32.46,37.54,32.86,37.54z"></path><path d="M37.13,37.54c0.4,0,0.72-0.32,0.72-0.72v-7.95c0-0.4-0.32-0.72-0.72-0.72c-0.4,0-0.72,0.32-0.72,0.72v7.95  C36.41,37.22,36.73,37.54,37.13,37.54z"></path><path d="M41.41,37.54c0.4,0,0.72-0.32,0.72-0.72V34.2c0-0.4-0.32-0.72-0.72-0.72c-0.4,0-0.72,0.32-0.72,0.72v2.63  C40.68,37.22,41.01,37.54,41.41,37.54z"></path><path d="M45.68,37.54c0.4,0,0.72-0.32,0.72-0.72V28c0-0.4-0.32-0.72-0.72-0.72c-0.4,0-0.72,0.32-0.72,0.72v8.82  C44.96,37.22,45.28,37.54,45.68,37.54z"></path><path d="M7.44,46.34h10.27c0.68,0,1.24-0.56,1.24-1.24v-3c0-0.68-0.56-1.24-1.24-1.24H7.44c-0.68,0-1.24,0.56-1.24,1.24v3  C6.21,45.78,6.76,46.34,7.44,46.34z M7.65,42.3h9.86v2.59H7.65V42.3z"></path><path d="M7.3,48.9H6.24c-0.4,0-0.72,0.32-0.72,0.72c0,0.4,0.32,0.72,0.72,0.72H7.3c0.4,0,0.72-0.32,0.72-0.72  C8.02,49.23,7.69,48.9,7.3,48.9z"></path><path d="M11.17,48.9h-1.06c-0.4,0-0.72,0.32-0.72,0.72c0,0.4,0.32,0.72,0.72,0.72h1.06c0.4,0,0.72-0.32,0.72-0.72  C11.9,49.23,11.57,48.9,11.17,48.9z"></path><path d="M15.05,48.9h-1.06c-0.4,0-0.72,0.32-0.72,0.72c0,0.4,0.32,0.72,0.72,0.72h1.06c0.4,0,0.72-0.32,0.72-0.72  C15.77,49.23,15.45,48.9,15.05,48.9z"></path><path d="M18.93,48.9h-1.06c-0.4,0-0.72,0.32-0.72,0.72c0,0.4,0.32,0.72,0.72,0.72h1.06c0.4,0,0.72-0.32,0.72-0.72  C19.65,49.23,19.32,48.9,18.93,48.9z"></path><path d="M7.3,52.37H6.24c-0.4,0-0.72,0.32-0.72,0.72c0,0.4,0.32,0.72,0.72,0.72H7.3c0.4,0,0.72-0.32,0.72-0.72  C8.02,52.7,7.69,52.37,7.3,52.37z"></path><path d="M11.17,52.37h-1.06c-0.4,0-0.72,0.32-0.72,0.72c0,0.4,0.32,0.72,0.72,0.72h1.06c0.4,0,0.72-0.32,0.72-0.72  C11.9,52.7,11.57,52.37,11.17,52.37z"></path><path d="M15.05,52.37h-1.06c-0.4,0-0.72,0.32-0.72,0.72c0,0.4,0.32,0.72,0.72,0.72h1.06c0.4,0,0.72-0.32,0.72-0.72  C15.77,52.7,15.45,52.37,15.05,52.37z"></path><path d="M18.93,52.37h-1.06c-0.4,0-0.72,0.32-0.72,0.72c0,0.4,0.32,0.72,0.72,0.72h1.06c0.4,0,0.72-0.32,0.72-0.72  C19.65,52.7,19.32,52.37,18.93,52.37z"></path><path d="M7.3,55.84H6.24c-0.4,0-0.72,0.32-0.72,0.72c0,0.4,0.32,0.72,0.72,0.72H7.3c0.4,0,0.72-0.32,0.72-0.72  C8.02,56.17,7.69,55.84,7.3,55.84z"></path><path d="M11.17,55.84h-1.06c-0.4,0-0.72,0.32-0.72,0.72c0,0.4,0.32,0.72,0.72,0.72h1.06c0.4,0,0.72-0.32,0.72-0.72  C11.9,56.17,11.57,55.84,11.17,55.84z"></path><path d="M15.05,55.84h-1.06c-0.4,0-0.72,0.32-0.72,0.72c0,0.4,0.32,0.72,0.72,0.72h1.06c0.4,0,0.72-0.32,0.72-0.72  C15.77,56.17,15.45,55.84,15.05,55.84z"></path><path d="M18.93,55.84h-1.06c-0.4,0-0.72,0.32-0.72,0.72c0,0.4,0.32,0.72,0.72,0.72h1.06c0.4,0,0.72-0.32,0.72-0.72  C19.65,56.17,19.32,55.84,18.93,55.84z"></path><path d="M7.3,59.31H6.24c-0.4,0-0.72,0.32-0.72,0.72c0,0.4,0.32,0.72,0.72,0.72H7.3c0.4,0,0.72-0.32,0.72-0.72  C8.02,59.64,7.69,59.31,7.3,59.31z"></path><path d="M11.17,59.31h-1.06c-0.4,0-0.72,0.32-0.72,0.72c0,0.4,0.32,0.72,0.72,0.72h1.06c0.4,0,0.72-0.32,0.72-0.72  C11.9,59.64,11.57,59.31,11.17,59.31z"></path><path d="M15.05,59.31h-1.06c-0.4,0-0.72,0.32-0.72,0.72c0,0.4,0.32,0.72,0.72,0.72h1.06c0.4,0,0.72-0.32,0.72-0.72  C15.77,59.64,15.45,59.31,15.05,59.31z"></path><path d="M18.93,59.31h-1.06c-0.4,0-0.72,0.32-0.72,0.72c0,0.4,0.32,0.72,0.72,0.72h1.06c0.4,0,0.72-0.32,0.72-0.72  C19.65,59.64,19.32,59.31,18.93,59.31z"></path><path d="M43.85,46.48H27c-0.4,0-0.72,0.32-0.72,0.72s0.32,0.72,0.72,0.72h16.86c0.4,0,0.72-0.32,0.72-0.72S44.25,46.48,43.85,46.48z  "></path><path d="M42.53,50.96H27c-0.4,0-0.72,0.32-0.72,0.72c0,0.4,0.32,0.72,0.72,0.72h15.54c0.4,0,0.72-0.32,0.72-0.72  C43.26,51.28,42.93,50.96,42.53,50.96z"></path><path d="M41.41,55.43H27c-0.4,0-0.72,0.32-0.72,0.72c0,0.4,0.32,0.72,0.72,0.72h14.41c0.4,0,0.72-0.32,0.72-0.72  C42.13,55.76,41.8,55.43,41.41,55.43z"></path><path d="M64.28,35.89c-0.11-0.55-0.44-1.03-0.91-1.34l-3.88-2.54c-0.47-0.31-1.03-0.42-1.59-0.3c-0.12,0.02-0.22,0.06-0.33,0.1  V10.74c0-2.09-1.7-3.78-3.78-3.78h-2.48V5.03c0-1.74-1.41-3.15-3.15-3.15c-1.74,0-3.15,1.41-3.15,3.15v1.93h-3.91V5.03  c0-1.74-1.41-3.15-3.15-3.15s-3.15,1.41-3.15,3.15v1.93H30.9V5.03c0-1.74-1.41-3.15-3.15-3.15c-1.74,0-3.15,1.41-3.15,3.15v1.93  H20.7V5.03c0-1.74-1.41-3.15-3.15-3.15S14.4,3.29,14.4,5.03v1.93h-2.48c-2.09,0-3.78,1.7-3.78,3.78v26.31H4.23  c-1.41,0-2.55,1.14-2.55,2.55v21.97c0,1.41,1.14,2.55,2.55,2.55h49.57c2.09,0,3.78-1.7,3.78-3.78v-13.1l6.4-9.77  C64.29,37.01,64.39,36.45,64.28,35.89z M60.41,40.29l-4.99-3.27l0.52-0.79l4.99,3.27L60.41,40.29z M53.18,51.32l-4.99-3.27  l6.44-9.82l4.99,3.27L53.18,51.32z M47.51,49.45c0-0.03,0.02-0.07,0.02-0.1l4.71,3.09c-0.03,0.02-0.05,0.04-0.08,0.06l-5.26,2.95  L47.51,49.45z M48.17,3.32c0.94,0,1.7,0.77,1.7,1.71v6.13c0,0.94-0.77,1.71-1.7,1.71c-0.94,0-1.71-0.77-1.71-1.71V5.03  C46.46,4.09,47.23,3.32,48.17,3.32z M36.26,5.03c0-0.94,0.77-1.71,1.71-1.71c0.94,0,1.71,0.77,1.71,1.71v6.13  c0,0.94-0.77,1.71-1.71,1.71c-0.94,0-1.71-0.77-1.71-1.71V5.03z M27.76,3.32c0.94,0,1.71,0.77,1.71,1.71v6.13  c0,0.94-0.77,1.71-1.71,1.71s-1.71-0.77-1.71-1.71V5.03C26.05,4.09,26.81,3.32,27.76,3.32z M15.84,5.03c0-0.94,0.77-1.71,1.71-1.71  s1.71,0.77,1.71,1.71v6.13c0,0.94-0.77,1.71-1.71,1.71s-1.71-0.77-1.71-1.71V5.03z M9.58,10.74c0-1.29,1.05-2.34,2.34-2.34h2.48  v0.39h0v2.37c0,1.74,1.41,3.15,3.15,3.15s3.15-1.41,3.15-3.15V8.79V8.4h3.91v2.76c0,1.74,1.41,3.15,3.15,3.15  c1.74,0,3.15-1.41,3.15-3.15V8.4h3.91v0.39h0v2.37c0,1.74,1.41,3.15,3.15,3.15s3.15-1.41,3.15-3.15V8.79V8.4h3.91v2.76  c0,1.74,1.41,3.15,3.15,3.15c1.74,0,3.15-1.41,3.15-3.15V8.79h0.01V8.4h2.47c1.29,0,2.34,1.05,2.34,2.34v2.06v4.97H9.58V12.8V10.74z   M9.58,19.21h46.55V33.3l-3.85,5.87V24.52c0-0.94-0.76-1.7-1.7-1.7H15.13c-0.94,0-1.7,0.76-1.7,1.7v12.53H9.58V19.21z M4.23,62.68  c-0.61,0-1.11-0.5-1.11-1.11V39.6c0-0.61,0.5-1.11,1.11-1.11h16.71c0.61,0,1.11,0.5,1.11,1.11v21.97c0,0.61-0.5,1.11-1.11,1.11H4.23  z M56.13,60.34c0,1.29-1.05,2.34-2.34,2.34H23.22c0.16-0.34,0.26-0.71,0.26-1.11V39.6c0-1.41-1.14-2.55-2.55-2.55h-6.06V24.52  c0-0.14,0.11-0.25,0.25-0.25h35.46c0.14,0,0.25,0.11,0.25,0.25v16.75c0,0.02,0.01,0.05,0.01,0.07l-4.25,6.49  c-0.29,0.44-0.47,0.94-0.52,1.47l-0.67,6.53c-0.04,0.43,0.15,0.85,0.52,1.09c0.19,0.13,0.42,0.19,0.64,0.19  c0.2,0,0.39-0.05,0.57-0.15l5.73-3.22c0.45-0.25,0.83-0.61,1.11-1.04c0,0,0,0,0,0c0,0,0,0,0,0C53.99,52.71,54,52.7,54,52.69  l2.13-3.25V60.34z M62.77,36.69L62.77,36.69l-1.05,1.61l-4.99-3.27l1.05-1.61c0.1-0.15,0.25-0.25,0.42-0.29  c0.05-0.01,0.09-0.01,0.14-0.01c0.13,0,0.25,0.04,0.36,0.11l3.88,2.54c0.15,0.1,0.25,0.25,0.29,0.42  C62.9,36.36,62.87,36.54,62.77,36.69z"></path></svg>