<svg xmlns="http://www.w3.org/2000/svg" version="1.1" fill="#ffffff" viewBox="12.12 6.25 75.73 87.5">  <g>   <path d="m36.445 26.797-1.832-3.3477c-0.46875-0.85547-1.8789-0.85547-2.3438 0l-1.832 3.3477-3.3477 1.832c-0.42969 0.23438-0.69531 0.68359-0.69531 1.1719s0.26562 0.9375 0.69531 1.1719l3.3477 1.832 1.832 3.3477c0.23438 0.42969 0.68359 0.69531 1.1719 0.69531 0.48828 0 0.9375-0.26562 1.1719-0.69531l1.832-3.3477 3.3477-1.832c0.42969-0.23438 0.69531-0.68359 0.69531-1.1719s-0.26562-0.9375-0.69531-1.1719zm-1.625 3.8516c-0.22266 0.125-0.40625 0.30469-0.53125 0.53125l-0.84766 1.5469-0.84375-1.5469c-0.125-0.22266-0.30859-0.41016-0.53125-0.53125l-1.5469-0.84375 1.5469-0.84766c0.22266-0.125 0.40625-0.30469 0.53125-0.53125l0.84375-1.5469 0.84766 1.5469c0.125 0.22266 0.30469 0.40625 0.53125 0.53125l1.5469 0.84766z"></path>   <path d="m65.797 36.945-2.3438-4.2891c-0.46875-0.85938-1.8789-0.85938-2.3438 0l-2.3438 4.2891-4.2891 2.3438c-0.42969 0.23438-0.69531 0.68359-0.69531 1.1719 0 0.48828 0.26562 0.9375 0.69531 1.1719l4.2891 2.3438 2.3438 4.2852c0.23438 0.42969 0.68359 0.69531 1.1719 0.69531s0.9375-0.26562 1.1719-0.69531l2.3438-4.2852 4.2891-2.3438c0.42969-0.23437 0.69531-0.68359 0.69531-1.1719 0-0.48828-0.26562-0.9375-0.69531-1.1719zm-1.6289 4.875c-0.22266 0.125-0.40625 0.30469-0.53125 0.53125l-1.3594 2.4844-1.3594-2.4844c-0.125-0.22266-0.30469-0.40625-0.53125-0.53125l-2.4844-1.3594 2.4844-1.3594c0.22266-0.125 0.40625-0.30469 0.53125-0.53125l1.3594-2.4844 1.3594 2.4844c0.125 0.22266 0.30469 0.40625 0.53125 0.53125l2.4844 1.3594z"></path>   <path d="m75.645 50.023c-6.7344 0-12.219 5.4844-12.219 12.219v4.6172c-8.6953-2.7656-18.164-2.7656-26.859 0v-4.2656c0-6.7344-5.4805-12.219-12.219-12.219-6.7344 0-12.219 5.4805-12.219 12.219 0 4.75 2.6953 8.9688 6.9414 10.992v12.07c0 0.74219 0.59766 1.3359 1.3359 1.3359h2.6016v5.4141c0 0.74219 0.59766 1.3359 1.3359 1.3359h6.7461c0.74219 0 1.3359-0.59766 1.3359-1.3359v-5.4141h35.125v5.4141c0 0.74219 0.59766 1.3359 1.3359 1.3359h6.7461c0.74219 0 1.3359-0.59766 1.3359-1.3359v-5.4141h2.6016c0.74219 0 1.3359-0.59766 1.3359-1.3359v-12.422c4.2461-2.0273 6.9414-6.25 6.9414-10.992 0.019532-6.7344-5.4648-12.219-12.203-12.219zm-39.074 29.836h26.859v4.457l-26.859 0.003906zm0.070313-10.238c8.6133-2.9141 18.102-2.9141 26.715 0l0.070312 0.023437v7.543h-26.855v-7.543zm-15.742 1.8438c-3.6992-1.4414-6.0898-4.9219-6.0898-8.8711 0-5.2617 4.2812-9.543 9.543-9.543 5.2656 0 9.543 4.2812 9.543 9.543v21.727h-12.145v-11.609c0-0.55078-0.33594-1.0469-0.85156-1.2461zm8.8633 19.605h-4.0703v-4.0742h4.0703zm44.547 0h-4.0703v-4.0742h4.0703zm4.793-19.957c-0.51562 0.19922-0.85156 0.69531-0.85156 1.2461v11.961h-12.145l-0.003907-22.078c0-5.2617 4.2812-9.5469 9.543-9.5469s9.5469 4.2812 9.5469 9.5469c-0.003906 3.9453-2.3945 7.4297-6.0898 8.8711z"></path>   <path d="m22.234 47.695c0.74219 0 1.3359-0.59766 1.3359-1.3359v-22.473c0-5.1172 4.1641-9.2812 9.2812-9.2812h9.5859l3.0234 1.6562 1.832 3.3477c0.23438 0.42969 0.68359 0.69531 1.1719 0.69531 0.48828 0 0.9375-0.26563 1.1719-0.69531l1.832-3.3477 3.0234-1.6562h12.648c5.1172 0 9.2812 4.1641 9.2812 9.2812v22.469c0 0.74219 0.59766 1.3359 1.3359 1.3359 0.74219 0 1.3359-0.59766 1.3359-1.3359l0.011719-22.469c0-6.5938-5.3633-11.957-11.957-11.957h-12.602l-3.0703-1.6797-1.832-3.3477c-0.46875-0.85938-1.8789-0.85938-2.3438 0l-1.832 3.3477-3.0703 1.6797h-9.5469c-6.5938 0-11.957 5.3633-11.957 11.957v22.469c0.003907 0.73828 0.59766 1.3398 1.3398 1.3398zm24.855-35.285c0.22266-0.125 0.41016-0.30859 0.53125-0.53125l0.84375-1.5469 0.84766 1.5469c0.125 0.22266 0.30469 0.40625 0.53125 0.53125l1.5469 0.84375-1.5469 0.84766c-0.22266 0.125-0.40625 0.30469-0.53125 0.53125l-0.84766 1.5469-0.84375-1.5469c-0.125-0.22266-0.30469-0.40625-0.53125-0.53125l-1.5469-0.84766z"></path>   <path d="m31.203 61.871c0-3.7773-3.0742-6.8516-6.8516-6.8516-3.7773 0-6.8516 3.0703-6.8516 6.8516 0 3.7773 3.0742 6.8516 6.8516 6.8516 3.7773 0 6.8516-3.0742 6.8516-6.8516zm-11.023 0c0-2.3008 1.875-4.1719 4.1758-4.1719s4.1758 1.875 4.1758 4.1719c0 2.3047-1.875 4.1758-4.1758 4.1758-2.3047 0-4.1758-1.875-4.1758-4.1758z"></path>   <path d="m75.645 55.02c-3.7773 0-6.8516 3.0703-6.8516 6.8516 0 3.7773 3.0742 6.8516 6.8516 6.8516 3.7773 0 6.8516-3.0742 6.8516-6.8516s-3.0742-6.8516-6.8516-6.8516zm0 11.027c-2.3047 0-4.1758-1.875-4.1758-4.1758 0-2.3008 1.875-4.1719 4.1758-4.1719 2.3047 0 4.1758 1.875 4.1758 4.1719 0 2.3008-1.875 4.1758-4.1758 4.1758z"></path>  </g></svg>